<?xml version="1.0" encoding="utf-8"?>
<!-- Generator: Adobe Illustrator 25.4.1, SVG Export Plug-In . SVG Version: 6.00 Build 0)  -->
<svg version="1.1" id="Layer_1" xmlns="http://www.w3.org/2000/svg" xmlns:xlink="http://www.w3.org/1999/xlink" x="0px" y="0px"
	 viewBox="0 0 1243.22 451.69" enable-background="new 0 0 1243.22 451.69" xml:space="preserve">
<g>
	<g>
		<rect fill="#06176D" width="1243.22" height="451.55"/>
	</g>
	<g>
		<defs>
			<rect id="SVGID_00000080917219472004133580000017924870203682897566_" x="5.9" y="6.25" width="1231.43" height="439.05"/>
		</defs>
		<clipPath id="SVGID_00000039099519622640037090000007706590302871488179_">
			<use xlink:href="#SVGID_00000080917219472004133580000017924870203682897566_"  overflow="visible"/>
		</clipPath>
		<g clip-path="url(#SVGID_00000039099519622640037090000007706590302871488179_)">
			<g>
				<linearGradient id="SVGID_1_" gradientUnits="userSpaceOnUse" x1="5.8951" y1="619.9614" x2="1237.323" y2="619.9614">
					<stop  offset="0" style="stop-color:#06176D"/>
					<stop  offset="1" style="stop-color:#009FE3"/>
				</linearGradient>
				<path fill="none" stroke="url(#SVGID_1_)" stroke-width="0.25" stroke-miterlimit="10" d="M1237.32,619.96
					c-76.98,0-77.03-201.22-154.01-201.22c-20.46,0-35.51,14.37-48.1,35.45c-34.22,57.73-49.39,165.76-105.72,165.76
					c-23.87,0-40.22-11.16-53.86-26.6c-30.57-34.51-46.92-90.42-100.07-90.42c-8.37,0-15.82,1.38-22.56,3.85
					c-9.86,3.6-18.19,9.51-25.61,16.8c-34.31,33.57-49.42,96.37-105.79,96.37c-56.37,0-71.49,62.8-105.79,96.37
					c-7.42,7.29-15.75,13.2-25.61,16.8c-6.74,2.47-14.2,3.85-22.56,3.85c-53.15,0-69.5-55.91-100.07-90.42
					c-13.64-15.43-29.99-26.6-53.86-26.6c-56.33,0-71.5,108.03-105.72,165.76c-12.58,21.08-27.69,35.44-48.15,35.44
					c-76.98,0-76.98-201.21-153.95-201.21"/>
				
					<linearGradient id="SVGID_00000097484017007710345910000008300885115653377685_" gradientUnits="userSpaceOnUse" x1="5.8951" y1="584.1264" x2="1237.323" y2="584.1264">
					<stop  offset="0" style="stop-color:#06176D"/>
					<stop  offset="1" style="stop-color:#009FE3"/>
				</linearGradient>
				
					<path fill="none" stroke="url(#SVGID_00000097484017007710345910000008300885115653377685_)" stroke-width="0.6023" stroke-miterlimit="10" d="
					M1237.32,584.13c-76.98,0-77.03-201.22-154.01-201.22c-20.46,0-35.51,14.37-48.1,35.45c-34.22,57.73-49.39,165.76-105.72,165.76
					c-23.87,0-40.22-11.16-53.86-26.6c-30.57-34.51-46.92-90.42-100.07-90.42c-8.37,0-15.82,1.38-22.56,3.85
					c-9.86,3.6-18.19,9.51-25.61,16.8c-34.31,33.57-49.42,96.37-105.79,96.37c-56.37,0-71.49,62.8-105.79,96.37
					c-7.42,7.29-15.75,13.2-25.61,16.8c-6.74,2.47-14.2,3.85-22.56,3.85c-53.15,0-69.5-55.91-100.07-90.42
					c-13.64-15.43-29.99-26.6-53.86-26.6c-56.33,0-71.5,108.03-105.72,165.76c-12.58,21.08-27.69,35.44-48.15,35.44
					c-76.98,0-76.98-201.21-153.95-201.21"/>
				
					<linearGradient id="SVGID_00000135685160328325508170000016630773658631712424_" gradientUnits="userSpaceOnUse" x1="5.8951" y1="548.2913" x2="1237.323" y2="548.2913">
					<stop  offset="0" style="stop-color:#06176D"/>
					<stop  offset="1" style="stop-color:#009FE3"/>
				</linearGradient>
				
					<path fill="none" stroke="url(#SVGID_00000135685160328325508170000016630773658631712424_)" stroke-width="0.9545" stroke-miterlimit="10" d="
					M1237.32,548.29c-76.98,0-77.03-201.22-154.01-201.22c-20.46,0-35.51,14.37-48.1,35.45c-34.22,57.73-49.39,165.76-105.72,165.76
					c-23.87,0-40.22-11.16-53.86-26.6c-30.57-34.51-46.92-90.42-100.07-90.42c-8.37,0-15.82,1.38-22.56,3.85
					c-9.86,3.6-18.19,9.51-25.61,16.8c-34.31,33.57-49.42,96.37-105.79,96.37c-56.37,0-71.49,62.8-105.79,96.37
					c-7.42,7.29-15.75,13.2-25.61,16.8c-6.74,2.47-14.2,3.85-22.56,3.85c-53.15,0-69.5-55.91-100.07-90.42
					c-13.64-15.43-29.99-26.6-53.86-26.6c-56.33,0-71.5,108.03-105.72,165.76c-12.58,21.08-27.69,35.44-48.15,35.44
					c-76.98,0-76.98-201.21-153.95-201.21"/>
				
					<linearGradient id="SVGID_00000088849981249276683950000009945079972834573243_" gradientUnits="userSpaceOnUse" x1="5.8951" y1="512.4562" x2="1237.323" y2="512.4562">
					<stop  offset="0" style="stop-color:#06176D"/>
					<stop  offset="1" style="stop-color:#009FE3"/>
				</linearGradient>
				
					<path fill="none" stroke="url(#SVGID_00000088849981249276683950000009945079972834573243_)" stroke-width="1.3068" stroke-miterlimit="10" d="
					M1237.32,512.46c-76.98,0-77.03-201.22-154.01-201.22c-20.46,0-35.51,14.37-48.1,35.45c-34.22,57.73-49.39,165.76-105.72,165.76
					c-23.87,0-40.22-11.16-53.86-26.6c-30.57-34.51-46.92-90.42-100.07-90.42c-8.37,0-15.82,1.38-22.56,3.85
					c-9.86,3.6-18.19,9.51-25.61,16.8c-34.31,33.57-49.42,96.37-105.79,96.37c-56.37,0-71.49,62.8-105.79,96.37
					c-7.42,7.29-15.75,13.2-25.61,16.8c-6.74,2.47-14.2,3.85-22.56,3.85c-53.15,0-69.5-55.91-100.07-90.42
					c-13.64-15.43-29.99-26.6-53.86-26.6c-56.33,0-71.5,108.03-105.72,165.76c-12.58,21.08-27.69,35.44-48.15,35.44
					c-76.98,0-76.98-201.21-153.95-201.21"/>
				
					<linearGradient id="SVGID_00000009574267850444727950000012238359399438059146_" gradientUnits="userSpaceOnUse" x1="5.8951" y1="476.6212" x2="1237.323" y2="476.6212">
					<stop  offset="0" style="stop-color:#06176D"/>
					<stop  offset="1" style="stop-color:#009FE3"/>
				</linearGradient>
				
					<path fill="none" stroke="url(#SVGID_00000009574267850444727950000012238359399438059146_)" stroke-width="1.6591" stroke-miterlimit="10" d="
					M1237.32,476.62c-76.98,0-77.03-201.22-154.01-201.22c-20.46,0-35.51,14.37-48.1,35.45c-34.22,57.73-49.39,165.76-105.72,165.76
					c-23.87,0-40.22-11.16-53.86-26.6c-30.57-34.51-46.92-90.42-100.07-90.42c-8.37,0-15.82,1.38-22.56,3.85
					c-9.86,3.6-18.19,9.51-25.61,16.8c-34.31,33.57-49.42,96.37-105.79,96.37c-56.37,0-71.49,62.8-105.79,96.37
					c-7.42,7.29-15.75,13.2-25.61,16.8c-6.74,2.47-14.2,3.85-22.56,3.85c-53.15,0-69.5-55.91-100.07-90.42
					c-13.64-15.43-29.99-26.6-53.86-26.6c-56.33,0-71.5,108.03-105.72,165.76c-12.58,21.08-27.69,35.44-48.15,35.44
					c-76.98,0-76.98-201.21-153.95-201.21"/>
				
					<linearGradient id="SVGID_00000030464311900121623520000005083414218239864733_" gradientUnits="userSpaceOnUse" x1="5.8951" y1="440.7861" x2="1237.323" y2="440.7861">
					<stop  offset="0" style="stop-color:#06176D"/>
					<stop  offset="1" style="stop-color:#009FE3"/>
				</linearGradient>
				
					<path fill="none" stroke="url(#SVGID_00000030464311900121623520000005083414218239864733_)" stroke-width="2.0114" stroke-miterlimit="10" d="
					M1237.32,440.79c-76.98,0-77.03-201.22-154.01-201.22c-20.46,0-35.51,14.37-48.1,35.45c-34.22,57.73-49.39,165.76-105.72,165.76
					c-23.87,0-40.22-11.16-53.86-26.6c-30.57-34.51-46.92-90.42-100.07-90.42c-8.37,0-15.82,1.38-22.56,3.85
					c-9.86,3.6-18.19,9.51-25.61,16.8c-34.31,33.57-49.42,96.37-105.79,96.37c-56.37,0-71.49,62.8-105.79,96.37
					c-7.42,7.29-15.75,13.2-25.61,16.8c-6.74,2.47-14.2,3.85-22.56,3.85c-53.15,0-69.5-55.91-100.07-90.42
					c-13.64-15.43-29.99-26.6-53.86-26.6c-56.33,0-71.5,108.03-105.72,165.76C195.41,627.64,180.31,642,159.85,642
					C82.87,642,82.87,440.79,5.9,440.79"/>
				
					<linearGradient id="SVGID_00000126325684117676111560000010157540323434561175_" gradientUnits="userSpaceOnUse" x1="5.8951" y1="404.951" x2="1237.323" y2="404.951">
					<stop  offset="0" style="stop-color:#06176D"/>
					<stop  offset="1" style="stop-color:#009FE3"/>
				</linearGradient>
				
					<path fill="none" stroke="url(#SVGID_00000126325684117676111560000010157540323434561175_)" stroke-width="2.3636" stroke-miterlimit="10" d="
					M1237.32,404.95c-76.98,0-77.03-201.22-154.01-201.22c-20.46,0-35.51,14.37-48.1,35.45c-34.22,57.73-49.39,165.76-105.72,165.76
					c-23.87,0-40.22-11.16-53.86-26.6c-30.57-34.51-46.92-90.42-100.07-90.42c-8.37,0-15.82,1.38-22.56,3.85
					c-9.86,3.6-18.19,9.51-25.61,16.8c-34.31,33.57-49.42,96.37-105.79,96.37c-56.37,0-71.49,62.8-105.79,96.37
					c-7.42,7.29-15.75,13.2-25.61,16.8c-6.74,2.47-14.2,3.85-22.56,3.85c-53.15,0-69.5-55.91-100.07-90.42
					c-13.64-15.43-29.99-26.6-53.86-26.6c-56.33,0-71.5,108.03-105.72,165.76c-12.58,21.08-27.69,35.44-48.15,35.44
					c-76.98,0-76.98-201.21-153.95-201.21"/>
				
					<linearGradient id="SVGID_00000089567063434460005340000017644567086871770257_" gradientUnits="userSpaceOnUse" x1="5.8951" y1="369.116" x2="1237.323" y2="369.116">
					<stop  offset="0" style="stop-color:#06176D"/>
					<stop  offset="1" style="stop-color:#009FE3"/>
				</linearGradient>
				
					<path fill="none" stroke="url(#SVGID_00000089567063434460005340000017644567086871770257_)" stroke-width="2.7159" stroke-miterlimit="10" d="
					M1237.32,369.12c-76.98,0-77.03-201.22-154.01-201.22c-20.46,0-35.51,14.37-48.1,35.45c-34.22,57.73-49.39,165.76-105.72,165.76
					c-23.87,0-40.22-11.16-53.86-26.6C845.08,308,828.73,252.1,775.58,252.1c-8.37,0-15.82,1.38-22.56,3.85
					c-9.86,3.6-18.19,9.51-25.61,16.8c-34.31,33.57-49.42,96.37-105.79,96.37c-56.37,0-71.49,62.8-105.79,96.37
					c-7.42,7.29-15.75,13.2-25.61,16.8c-6.74,2.47-14.2,3.85-22.56,3.85c-53.15,0-69.5-55.91-100.07-90.42
					c-13.64-15.43-29.99-26.6-53.86-26.6c-56.33,0-71.5,108.03-105.72,165.76c-12.58,21.08-27.69,35.44-48.15,35.44
					c-76.98,0-76.98-201.21-153.95-201.21"/>
				
					<linearGradient id="SVGID_00000173860082940293414650000008174985162109952686_" gradientUnits="userSpaceOnUse" x1="5.8951" y1="333.2809" x2="1237.323" y2="333.2809">
					<stop  offset="0" style="stop-color:#06176D"/>
					<stop  offset="1" style="stop-color:#009FE3"/>
				</linearGradient>
				
					<path fill="none" stroke="url(#SVGID_00000173860082940293414650000008174985162109952686_)" stroke-width="3.0682" stroke-miterlimit="10" d="
					M1237.32,333.28c-76.98,0-77.03-201.22-154.01-201.22c-20.46,0-35.51,14.37-48.1,35.45c-34.22,57.73-49.39,165.76-105.72,165.76
					c-23.87,0-40.22-11.16-53.86-26.6c-30.57-34.51-46.92-90.42-100.07-90.42c-8.37,0-15.82,1.38-22.56,3.85
					c-9.86,3.6-18.19,9.51-25.61,16.8c-34.31,33.57-49.42,96.37-105.79,96.37c-56.37,0-71.49,62.8-105.79,96.37
					c-7.42,7.29-15.75,13.2-25.61,16.8c-6.74,2.47-14.2,3.85-22.56,3.85c-53.15,0-69.5-55.91-100.07-90.42
					c-13.64-15.43-29.99-26.6-53.86-26.6c-56.33,0-71.5,108.03-105.72,165.76c-12.58,21.08-27.69,35.44-48.15,35.44
					c-76.98,0-76.98-201.21-153.95-201.21"/>
				
					<linearGradient id="SVGID_00000114770071584271487120000002799374779429525120_" gradientUnits="userSpaceOnUse" x1="5.8951" y1="297.4458" x2="1237.323" y2="297.4458">
					<stop  offset="0" style="stop-color:#06176D"/>
					<stop  offset="1" style="stop-color:#009FE3"/>
				</linearGradient>
				
					<path fill="none" stroke="url(#SVGID_00000114770071584271487120000002799374779429525120_)" stroke-width="3.4205" stroke-miterlimit="10" d="
					M1237.32,297.45c-76.98,0-77.03-201.22-154.01-201.22c-20.46,0-35.51,14.37-48.1,35.45c-34.22,57.73-49.39,165.76-105.72,165.76
					c-23.87,0-40.22-11.16-53.86-26.6c-30.57-34.51-46.92-90.42-100.07-90.42c-8.37,0-15.82,1.38-22.56,3.85
					c-9.86,3.6-18.19,9.51-25.61,16.8c-34.31,33.57-49.42,96.37-105.79,96.37c-56.37,0-71.49,62.8-105.79,96.37
					c-7.42,7.29-15.75,13.2-25.61,16.8c-6.74,2.47-14.2,3.85-22.56,3.85c-53.15,0-69.5-55.91-100.07-90.42
					c-13.64-15.43-29.99-26.6-53.86-26.6c-56.33,0-71.5,108.03-105.72,165.76c-12.58,21.08-27.69,35.44-48.15,35.44
					c-76.98,0-76.98-201.21-153.95-201.21"/>
				
					<linearGradient id="SVGID_00000030452250944982170040000001476817299479282316_" gradientUnits="userSpaceOnUse" x1="5.8951" y1="261.6107" x2="1237.323" y2="261.6107">
					<stop  offset="0" style="stop-color:#06176D"/>
					<stop  offset="1" style="stop-color:#009FE3"/>
				</linearGradient>
				
					<path fill="none" stroke="url(#SVGID_00000030452250944982170040000001476817299479282316_)" stroke-width="3.7727" stroke-miterlimit="10" d="
					M1237.32,261.61c-76.98,0-77.03-201.22-154.01-201.22c-20.46,0-35.51,14.37-48.1,35.45c-34.22,57.73-49.39,165.76-105.72,165.76
					c-23.87,0-40.22-11.16-53.86-26.6c-30.57-34.51-46.92-90.42-100.07-90.42c-8.37,0-15.82,1.38-22.56,3.85
					c-9.86,3.6-18.19,9.51-25.61,16.8c-34.31,33.57-49.42,96.37-105.79,96.37c-56.37,0-71.49,62.8-105.79,96.37
					c-7.42,7.29-15.75,13.2-25.61,16.8c-6.74,2.47-14.2,3.85-22.56,3.85c-53.15,0-69.5-55.91-100.07-90.42
					c-13.64-15.43-29.99-26.6-53.86-26.6c-56.33,0-71.5,108.03-105.72,165.76c-12.58,21.08-27.69,35.44-48.15,35.44
					c-76.98,0-76.98-201.21-153.95-201.21"/>
				
					<linearGradient id="SVGID_00000023970542995092763650000003074699213724966826_" gradientUnits="userSpaceOnUse" x1="5.8951" y1="225.7757" x2="1237.323" y2="225.7757">
					<stop  offset="0" style="stop-color:#06176D"/>
					<stop  offset="1" style="stop-color:#009FE3"/>
				</linearGradient>
				
					<path fill="none" stroke="url(#SVGID_00000023970542995092763650000003074699213724966826_)" stroke-width="4.125" stroke-miterlimit="10" d="
					M1237.32,225.78c-76.98,0-77.03-201.22-154.01-201.22c-20.46,0-35.51,14.37-48.1,35.45c-34.22,57.73-49.39,165.76-105.72,165.76
					c-23.87,0-40.22-11.16-53.86-26.6c-30.57-34.51-46.92-90.42-100.07-90.42c-8.37,0-15.82,1.38-22.56,3.85
					c-9.86,3.6-18.19,9.51-25.61,16.8c-34.31,33.57-49.42,96.37-105.79,96.37c-56.37,0-71.49,62.8-105.79,96.37
					c-7.42,7.29-15.75,13.2-25.61,16.8c-6.74,2.47-14.2,3.85-22.56,3.85c-53.15,0-69.5-55.91-100.07-90.42
					c-13.64-15.43-29.99-26.6-53.86-26.6c-56.33,0-71.5,108.03-105.72,165.76c-12.58,21.08-27.69,35.44-48.15,35.44
					c-76.98,0-76.98-201.21-153.95-201.21"/>
				
					<linearGradient id="SVGID_00000160884332153473409470000008492358793815830965_" gradientUnits="userSpaceOnUse" x1="5.8951" y1="189.9406" x2="1237.323" y2="189.9406">
					<stop  offset="0" style="stop-color:#06176D"/>
					<stop  offset="1" style="stop-color:#009FE3"/>
				</linearGradient>
				
					<path fill="none" stroke="url(#SVGID_00000160884332153473409470000008492358793815830965_)" stroke-width="4.4773" stroke-miterlimit="10" d="
					M1237.32,189.94c-76.98,0-77.03-201.22-154.01-201.22c-20.46,0-35.51,14.37-48.1,35.45C1001,81.91,985.83,189.94,929.51,189.94
					c-23.87,0-40.22-11.16-53.86-26.6c-30.57-34.51-46.92-90.42-100.07-90.42c-8.37,0-15.82,1.38-22.56,3.85
					c-9.86,3.6-18.19,9.51-25.61,16.8c-34.31,33.57-49.42,96.37-105.79,96.37c-56.37,0-71.49,62.8-105.79,96.37
					c-7.42,7.29-15.75,13.2-25.61,16.8c-6.74,2.47-14.2,3.85-22.56,3.85c-53.15,0-69.5-55.91-100.07-90.42
					c-13.64-15.43-29.99-26.6-53.86-26.6c-56.33,0-71.5,108.03-105.72,165.76c-12.58,21.08-27.69,35.44-48.15,35.44
					c-76.98,0-76.98-201.21-153.95-201.21"/>
				
					<linearGradient id="SVGID_00000127749055065930692710000008441875808078611854_" gradientUnits="userSpaceOnUse" x1="5.8951" y1="154.1055" x2="1237.323" y2="154.1055">
					<stop  offset="0" style="stop-color:#06176D"/>
					<stop  offset="1" style="stop-color:#009FE3"/>
				</linearGradient>
				
					<path fill="none" stroke="url(#SVGID_00000127749055065930692710000008441875808078611854_)" stroke-width="4.8295" stroke-miterlimit="10" d="
					M1237.32,154.11c-76.98,0-77.03-201.22-154.01-201.22c-20.46,0-35.51,14.37-48.1,35.45C1001,46.07,985.83,154.1,929.51,154.1
					c-23.87,0-40.22-11.16-53.86-26.6c-30.57-34.51-46.92-90.42-100.07-90.42c-8.37,0-15.82,1.38-22.56,3.85
					c-9.86,3.6-18.19,9.51-25.61,16.8c-34.31,33.57-49.42,96.37-105.79,96.37c-56.37,0-71.49,62.8-105.79,96.37
					c-7.42,7.29-15.75,13.2-25.61,16.8c-6.74,2.47-14.2,3.85-22.56,3.85c-53.15,0-69.5-55.91-100.07-90.42
					c-13.64-15.43-29.99-26.6-53.86-26.6c-56.33,0-71.5,108.03-105.72,165.76c-12.58,21.08-27.69,35.44-48.15,35.44
					c-76.98,0-76.98-201.21-153.95-201.21"/>
				
					<linearGradient id="SVGID_00000083078662019687870910000006233644975692516533_" gradientUnits="userSpaceOnUse" x1="5.8951" y1="118.2705" x2="1237.323" y2="118.2705">
					<stop  offset="0" style="stop-color:#06176D"/>
					<stop  offset="1" style="stop-color:#009FE3"/>
				</linearGradient>
				
					<path fill="none" stroke="url(#SVGID_00000083078662019687870910000006233644975692516533_)" stroke-width="5.1818" stroke-miterlimit="10" d="
					M1237.32,118.27c-76.98,0-77.03-201.22-154.01-201.22c-20.46,0-35.51,14.37-48.1,35.45C1001,10.24,985.83,118.27,929.51,118.27
					c-23.87,0-40.22-11.16-53.86-26.6C845.08,57.16,828.73,1.25,775.58,1.25c-8.37,0-15.82,1.38-22.56,3.85
					c-9.86,3.6-18.19,9.51-25.61,16.8c-34.31,33.57-49.42,96.37-105.79,96.37c-56.37,0-71.49,62.8-105.79,96.37
					c-7.42,7.29-15.75,13.2-25.61,16.8c-6.74,2.47-14.2,3.85-22.56,3.85c-53.15,0-69.5-55.91-100.07-90.42
					c-13.64-15.43-29.99-26.6-53.86-26.6c-56.33,0-71.5,108.03-105.72,165.76c-12.58,21.08-27.69,35.44-48.15,35.44
					c-76.98,0-76.98-201.21-153.95-201.21"/>
				
					<linearGradient id="SVGID_00000029751794356662854060000016997129378095968693_" gradientUnits="userSpaceOnUse" x1="5.8951" y1="82.4354" x2="1237.323" y2="82.4354">
					<stop  offset="0" style="stop-color:#06176D"/>
					<stop  offset="1" style="stop-color:#009FE3"/>
				</linearGradient>
				
					<path fill="none" stroke="url(#SVGID_00000029751794356662854060000016997129378095968693_)" stroke-width="5.5341" stroke-miterlimit="10" d="
					M1237.32,82.44c-76.98,0-77.03-201.22-154.01-201.22c-20.46,0-35.51,14.37-48.1,35.45C1001-25.6,985.83,82.43,929.51,82.43
					c-23.87,0-40.22-11.16-53.86-26.6c-30.57-34.51-46.92-90.42-100.07-90.42c-8.37,0-15.82,1.38-22.56,3.85
					c-9.86,3.6-18.19,9.51-25.61,16.8c-34.31,33.57-49.42,96.37-105.79,96.37c-56.37,0-71.49,62.8-105.79,96.37
					c-7.42,7.29-15.75,13.2-25.61,16.8c-6.74,2.47-14.2,3.85-22.56,3.85c-53.15,0-69.5-55.91-100.07-90.42
					c-13.64-15.43-29.99-26.6-53.86-26.6c-56.33,0-71.5,108.03-105.72,165.76c-12.58,21.08-27.69,35.44-48.15,35.44
					C82.87,283.65,82.87,82.44,5.9,82.44"/>
				
					<linearGradient id="SVGID_00000105409448899658458580000012186166038374828990_" gradientUnits="userSpaceOnUse" x1="5.8951" y1="46.6003" x2="1237.323" y2="46.6003">
					<stop  offset="0" style="stop-color:#06176D"/>
					<stop  offset="1" style="stop-color:#009FE3"/>
				</linearGradient>
				
					<path fill="none" stroke="url(#SVGID_00000105409448899658458580000012186166038374828990_)" stroke-width="5.8864" stroke-miterlimit="10" d="
					M1237.32,46.6c-76.98,0-77.03-201.22-154.01-201.22c-20.46,0-35.51,14.37-48.1,35.45C1001-61.43,985.83,46.6,929.51,46.6
					c-23.87,0-40.22-11.16-53.86-26.6c-30.57-34.51-46.92-90.42-100.07-90.42c-8.37,0-15.82,1.38-22.56,3.85
					c-9.86,3.6-18.19,9.51-25.61,16.8C693.09-16.2,677.98,46.6,621.61,46.6c-56.37,0-71.49,62.8-105.79,96.37
					c-7.42,7.29-15.75,13.2-25.61,16.8c-6.74,2.47-14.2,3.85-22.56,3.85c-53.15,0-69.5-55.91-100.07-90.42
					c-13.64-15.43-29.99-26.6-53.86-26.6c-56.33,0-71.5,108.03-105.72,165.76c-12.58,21.08-27.69,35.44-48.15,35.44
					C82.87,247.81,82.87,46.6,5.9,46.6"/>
				
					<linearGradient id="SVGID_00000106108478977082835130000006210397018038467733_" gradientUnits="userSpaceOnUse" x1="5.8951" y1="10.7653" x2="1237.323" y2="10.7653">
					<stop  offset="0" style="stop-color:#06176D"/>
					<stop  offset="1" style="stop-color:#009FE3"/>
				</linearGradient>
				
					<path fill="none" stroke="url(#SVGID_00000106108478977082835130000006210397018038467733_)" stroke-width="6.2386" stroke-miterlimit="10" d="
					M1237.32,10.77c-76.98,0-77.03-201.22-154.01-201.22c-20.46,0-35.51,14.37-48.1,35.45C1001-97.27,985.83,10.76,929.51,10.76
					c-23.87,0-40.22-11.16-53.86-26.6c-30.57-34.51-46.92-90.42-100.07-90.42c-8.37,0-15.82,1.38-22.56,3.85
					c-9.86,3.6-18.19,9.51-25.61,16.8c-34.31,33.57-49.42,96.37-105.79,96.37c-56.37,0-71.49,62.8-105.79,96.37
					c-7.42,7.29-15.75,13.2-25.61,16.8c-6.74,2.47-14.2,3.85-22.56,3.85c-53.15,0-69.5-55.91-100.07-90.42
					c-13.64-15.43-29.99-26.6-53.86-26.6c-56.33,0-71.5,108.03-105.72,165.76c-12.58,21.08-27.69,35.44-48.15,35.44
					C82.87,211.98,82.87,10.77,5.9,10.77"/>
				
					<linearGradient id="SVGID_00000008131278482513076560000005185519997821114772_" gradientUnits="userSpaceOnUse" x1="5.8951" y1="-25.0698" x2="1237.323" y2="-25.0698">
					<stop  offset="0" style="stop-color:#06176D"/>
					<stop  offset="1" style="stop-color:#009FE3"/>
				</linearGradient>
				
					<path fill="none" stroke="url(#SVGID_00000008131278482513076560000005185519997821114772_)" stroke-width="6.5909" stroke-miterlimit="10" d="
					M1237.32-25.07c-76.98,0-77.03-201.22-154.01-201.22c-20.46,0-35.51,14.37-48.1,35.45C1001-133.11,985.83-25.07,929.51-25.07
					c-23.87,0-40.22-11.16-53.86-26.6c-30.57-34.51-46.92-90.42-100.07-90.42c-8.37,0-15.82,1.38-22.56,3.85
					c-9.86,3.6-18.19,9.51-25.61,16.8c-34.31,33.57-49.42,96.37-105.79,96.37c-56.37,0-71.49,62.8-105.79,96.37
					c-7.42,7.29-15.75,13.2-25.61,16.8c-6.74,2.47-14.2,3.85-22.56,3.85c-53.15,0-69.5-55.91-100.07-90.42
					c-13.64-15.43-29.99-26.6-53.86-26.6c-56.33,0-71.5,108.03-105.72,165.76c-12.58,21.08-27.69,35.44-48.15,35.44
					C82.87,176.14,82.87-25.07,5.9-25.07"/>
				
					<linearGradient id="SVGID_00000073708410076862940820000010651011653154305704_" gradientUnits="userSpaceOnUse" x1="5.8951" y1="-60.9049" x2="1237.323" y2="-60.9049">
					<stop  offset="0" style="stop-color:#06176D"/>
					<stop  offset="1" style="stop-color:#009FE3"/>
				</linearGradient>
				
					<path fill="none" stroke="url(#SVGID_00000073708410076862940820000010651011653154305704_)" stroke-width="6.9432" stroke-miterlimit="10" d="
					M1237.32-60.9c-76.98,0-77.03-201.22-154.01-201.22c-20.46,0-35.51,14.37-48.1,35.45C1001-168.94,985.83-60.91,929.51-60.91
					c-23.87,0-40.22-11.16-53.86-26.6c-30.57-34.51-46.92-90.42-100.07-90.42c-8.37,0-15.82,1.38-22.56,3.85
					c-9.86,3.6-18.19,9.51-25.61,16.8C693.09-123.7,677.98-60.9,621.61-60.9c-56.37,0-71.49,62.8-105.79,96.37
					c-7.42,7.29-15.75,13.2-25.61,16.8c-6.74,2.47-14.2,3.85-22.56,3.85c-53.15,0-69.5-55.91-100.07-90.42
					c-13.64-15.43-29.99-26.6-53.86-26.6c-56.33,0-71.5,108.03-105.72,165.76c-12.58,21.08-27.69,35.44-48.15,35.44
					C82.87,140.31,82.87-60.9,5.9-60.9"/>
				
					<linearGradient id="SVGID_00000176743451113979149690000004617725986466201990_" gradientUnits="userSpaceOnUse" x1="5.8951" y1="-96.7399" x2="1237.323" y2="-96.7399">
					<stop  offset="0" style="stop-color:#06176D"/>
					<stop  offset="1" style="stop-color:#009FE3"/>
				</linearGradient>
				
					<path fill="none" stroke="url(#SVGID_00000176743451113979149690000004617725986466201990_)" stroke-width="7.2955" stroke-miterlimit="10" d="
					M1237.32-96.74c-76.98,0-77.03-201.22-154.01-201.22c-20.46,0-35.51,14.37-48.1,35.45C1001-204.78,985.83-96.74,929.51-96.74
					c-23.87,0-40.22-11.16-53.86-26.6c-30.57-34.51-46.92-90.42-100.07-90.42c-8.37,0-15.82,1.38-22.56,3.85
					c-9.86,3.6-18.19,9.51-25.61,16.8c-34.31,33.57-49.42,96.37-105.79,96.37c-56.37,0-71.49,62.8-105.79,96.37
					c-7.42,7.29-15.75,13.2-25.61,16.8c-6.74,2.47-14.2,3.85-22.56,3.85c-53.15,0-69.5-55.91-100.07-90.42
					c-13.64-15.43-29.99-26.6-53.86-26.6c-56.33,0-71.5,108.03-105.72,165.76c-12.58,21.08-27.69,35.44-48.15,35.44
					C82.87,104.47,82.87-96.74,5.9-96.74"/>
				
					<linearGradient id="SVGID_00000152264382263680346480000017184157696803572116_" gradientUnits="userSpaceOnUse" x1="5.8951" y1="-132.575" x2="1237.323" y2="-132.575">
					<stop  offset="0" style="stop-color:#06176D"/>
					<stop  offset="1" style="stop-color:#009FE3"/>
				</linearGradient>
				
					<path fill="none" stroke="url(#SVGID_00000152264382263680346480000017184157696803572116_)" stroke-width="7.6477" stroke-miterlimit="10" d="
					M1237.32-132.57c-76.98,0-77.03-201.22-154.01-201.22c-20.46,0-35.51,14.37-48.1,35.45c-34.22,57.73-49.39,165.76-105.72,165.76
					c-23.87,0-40.22-11.16-53.86-26.6c-30.57-34.51-46.92-90.42-100.07-90.42c-8.37,0-15.82,1.38-22.56,3.85
					c-9.86,3.6-18.19,9.51-25.61,16.8c-34.31,33.57-49.42,96.37-105.79,96.37c-56.37,0-71.49,62.8-105.79,96.37
					c-7.42,7.29-15.75,13.2-25.61,16.8c-6.74,2.47-14.2,3.85-22.56,3.85c-53.15,0-69.5-55.91-100.07-90.42
					c-13.64-15.43-29.99-26.6-53.86-26.6c-56.33,0-71.5,108.03-105.72,165.76c-12.58,21.08-27.69,35.44-48.15,35.44
					c-76.98,0-76.98-201.21-153.95-201.21"/>
				
					<linearGradient id="SVGID_00000157293883226940672650000008230913879995074204_" gradientUnits="userSpaceOnUse" x1="5.8951" y1="-168.4101" x2="1237.323" y2="-168.4101">
					<stop  offset="0" style="stop-color:#06176D"/>
					<stop  offset="1" style="stop-color:#009FE3"/>
				</linearGradient>
				
					<path fill="none" stroke="url(#SVGID_00000157293883226940672650000008230913879995074204_)" stroke-width="8" stroke-miterlimit="10" d="
					M1237.32-168.41c-76.98,0-77.03-201.22-154.01-201.22c-20.46,0-35.51,14.37-48.1,35.45c-34.22,57.73-49.39,165.76-105.72,165.76
					c-23.87,0-40.22-11.16-53.86-26.6c-30.57-34.51-46.92-90.42-100.07-90.42c-8.37,0-15.82,1.38-22.56,3.85
					c-9.86,3.6-18.19,9.51-25.61,16.8c-34.31,33.57-49.42,96.37-105.79,96.37c-56.37,0-71.49,62.8-105.79,96.37
					c-7.42,7.29-15.75,13.2-25.61,16.8c-6.74,2.47-14.2,3.85-22.56,3.85c-53.15,0-69.5-55.91-100.07-90.42
					c-13.64-15.43-29.99-26.6-53.86-26.6c-56.33,0-71.5,108.03-105.72,165.76c-12.58,21.08-27.69,35.44-48.15,35.44
					C82.87,32.8,82.87-168.41,5.9-168.41"/>
			</g>
		</g>
	</g>
</g>
</svg>
